<svg xmlns="http://www.w3.org/2000/svg" viewBox="0 0 44.89 44.89"><defs><style>.cls-1{fill:#fff;}</style></defs><g id="Слой_2" data-name="Слой 2"><g id="Layer_2" data-name="Layer 2"><path class="cls-1" d="M19,42.36V28.48H14V22.73h5V18.36c0-5,3-7.73,7.51-7.73a30.31,30.31,0,0,1,4.44.39V15.9h-2.5C26,15.9,25.2,17.44,25.2,19v3.72h5.51l-.88,5.75H25.2V42.36Z"/><path class="cls-1" d="M22.45,44.89A22.45,22.45,0,1,1,44.89,22.45,22.47,22.47,0,0,1,22.45,44.89Zm0-41.07A18.63,18.63,0,1,0,41.08,22.45,18.64,18.64,0,0,0,22.45,3.82Z"/></g></g></svg>