<svg xmlns="http://www.w3.org/2000/svg" viewBox="0 0 24.37 24.37"><defs><style>.cls-1{fill:#fff;}</style></defs><g id="Слой_2" data-name="Слой 2"><g id="Layer_2" data-name="Layer 2"><path class="cls-1" d="M8.12,12.18a4.07,4.07,0,1,1,4.06,4.07,4.06,4.06,0,0,1-4.06-4.07m-2.19,0a6.26,6.26,0,1,0,6.25-6.25,6.25,6.25,0,0,0-6.25,6.25m11.3-6.5a1.46,1.46,0,1,0,1.46-1.46,1.46,1.46,0,0,0-1.46,1.46M7.26,22.1A6.53,6.53,0,0,1,5,21.68a3.65,3.65,0,0,1-1.4-.91,3.73,3.73,0,0,1-.91-1.4,6.53,6.53,0,0,1-.42-2.26c-.06-1.29-.07-1.67-.07-4.93s0-3.63.07-4.92A6.53,6.53,0,0,1,2.69,5,3.65,3.65,0,0,1,3.6,3.6,3.8,3.8,0,0,1,5,2.68a6.85,6.85,0,0,1,2.26-.41c1.29-.06,1.67-.08,4.92-.08s3.64,0,4.93.08a6.85,6.85,0,0,1,2.26.41,3.88,3.88,0,0,1,1.4.92A3.65,3.65,0,0,1,21.68,5a6.53,6.53,0,0,1,.42,2.26c.06,1.29.07,1.67.07,4.92s0,3.64-.07,4.93a6.53,6.53,0,0,1-.42,2.26,3.73,3.73,0,0,1-.91,1.4,3.65,3.65,0,0,1-1.4.91,6.53,6.53,0,0,1-2.26.42c-1.29.06-1.67.07-4.93.07s-3.63,0-4.92-.07m-.1-22a9,9,0,0,0-3,.57A5.86,5.86,0,0,0,2.05,2.05,5.86,5.86,0,0,0,.64,4.2a9,9,0,0,0-.57,3C0,8.46,0,8.88,0,12.18s0,3.73.07,5a8.94,8.94,0,0,0,.57,2.95,5.81,5.81,0,0,0,1.41,2.16A5.86,5.86,0,0,0,4.2,23.73a9,9,0,0,0,3,.56c1.3.06,1.72.08,5,.08s3.73,0,5-.08a9,9,0,0,0,2.95-.56,5.89,5.89,0,0,0,2.16-1.41,5.81,5.81,0,0,0,1.41-2.16,8.72,8.72,0,0,0,.56-2.95c.06-1.3.08-1.72.08-5s0-3.72-.08-5a9,9,0,0,0-.56-3,5.86,5.86,0,0,0-1.41-2.15A5.86,5.86,0,0,0,20.17.64a9.07,9.07,0,0,0-3-.57C15.91,0,15.49,0,12.18,0s-3.72,0-5,.07"/></g></g></svg>