<svg xmlns="http://www.w3.org/2000/svg" viewBox="0 0 44.89 44.89"><defs><style>.cls-1{fill:#fff;}</style></defs><g id="Слой_2" data-name="Слой 2"><g id="Layer_2" data-name="Layer 2"><path class="cls-1" d="M7.47,22l6,2.24,2.33,7.47a.71.71,0,0,0,1.12.34l3.34-2.73a1,1,0,0,1,1.22,0l6,4.38a.71.71,0,0,0,1.11-.43L33,12a.71.71,0,0,0-.95-.8L7.47,20.66a.71.71,0,0,0,0,1.32Zm8,1.05,11.73-7.22a.2.2,0,0,1,.24.32l-9.67,9a2,2,0,0,0-.62,1.19l-.33,2.45a.3.3,0,0,1-.59,0l-1.27-4.45A1.17,1.17,0,0,1,15.42,23Z"/><path class="cls-1" d="M22.45,44.89A22.45,22.45,0,1,1,44.89,22.45,22.47,22.47,0,0,1,22.45,44.89Zm0-41.07A18.63,18.63,0,1,0,41.08,22.45,18.64,18.64,0,0,0,22.45,3.82Z"/></g></g></svg>