<svg width="34" height="23" viewBox="0 0 34 23" fill="none" xmlns="http://www.w3.org/2000/svg">
<g clip-path="url(#clip0)">
<path d="M17.6 5.79999C17.6 5.79999 13.2 8.69999 13.1 13.2C13 17.7 17.4 22.2 17.4 22.2C17.4 22.2 21.8 19.3 21.9 14.8C21.9 10.2 17.6 5.79999 17.6 5.79999Z" fill="#FFC140"/>
<path d="M15.7 0.300003C15.7 0.300003 9.5 -1.1 5.1 1.9C0.8 5 0 11.3 0 11.3C0 11.3 6.2 12.7 10.6 9.7C14.9 6.7 15.7 0.300003 15.7 0.300003Z" fill="#FFC140"/>
<path d="M19.9 7.70576e-06C19.9 7.70576e-06 19.6 6.40001 23.4 10.1C27.2 13.8 33.6 13.4 33.6 13.4C33.6 13.4 33.9 7.00001 30.1 3.30001C26.3 -0.399992 19.9 7.70576e-06 19.9 7.70576e-06Z" fill="#FFC140"/>
</g>
<defs>
<clipPath id="clip0">
<rect width="33.6" height="22.1" fill="white"/>
</clipPath>
</defs>
</svg>
