<svg xmlns="http://www.w3.org/2000/svg" viewBox="0 0 41.25 41.44"><defs><style>.cls-1{fill:#fff;fill-rule:evenodd;}</style></defs><g id="Слой_2" data-name="Слой 2"><g id="Layer_2" data-name="Layer 2"><path class="cls-1" d="M35.24,6A20.54,20.54,0,0,0,.17,20.53,20.61,20.61,0,0,0,2.91,30.8L0,41.44l10.89-2.86a20.47,20.47,0,0,0,9.81,2.5h0A20.54,20.54,0,0,0,35.24,6M20.71,37.61h0A17,17,0,0,1,12,35.23l-.63-.37-6.46,1.7,1.73-6.3-.41-.65a17.07,17.07,0,1,1,14.46,8m9.37-12.78c-.52-.26-3-1.5-3.51-1.67s-.81-.26-1.16.26-1.32,1.67-1.62,2-.6.38-1.11.13A14,14,0,0,1,18.55,23a15.5,15.5,0,0,1-2.86-3.55c-.29-.52,0-.79.23-1.05s.51-.6.77-.9a3.37,3.37,0,0,0,.51-.85.94.94,0,0,0,0-.9C17,15.5,16,13,15.58,12s-.84-.87-1.16-.88-.64,0-1,0a1.9,1.9,0,0,0-1.37.64A5.76,5.76,0,0,0,10.28,16a9.94,9.94,0,0,0,2.09,5.31c.26.34,3.62,5.52,8.77,7.74a30.66,30.66,0,0,0,2.92,1.09,7.1,7.1,0,0,0,3.24.2c1-.15,3-1.24,3.46-2.44a4.25,4.25,0,0,0,.3-2.44c-.13-.21-.47-.34-1-.6"/></g></g></svg>